<?xml version="1.0" encoding="utf-8"?>
<!-- Generator: Adobe Illustrator 26.5.0, SVG Export Plug-In . SVG Version: 6.00 Build 0)  -->
<svg version="1.1" id="Lag_1" xmlns="http://www.w3.org/2000/svg" xmlns:xlink="http://www.w3.org/1999/xlink" x="0px" y="0px"
	 viewBox="0 0 100 100" style="enable-background:new 0 0 100 100;" xml:space="preserve">
<style type="text/css">
	.st0{fill:#FFFFFF;}
</style>
<g>
	<g>
		<path class="st0" d="M75.52,39.75c0.7,2.36,1.39,4.68,2.1,7.07c-0.14-0.08-0.21-0.12-0.28-0.16c-2.44-1.61-4.88-3.23-7.32-4.85
			c-0.2-0.14-0.39-0.18-0.63-0.13c-2.94,0.62-5.91,0.86-8.9,0.77c-3.94-0.12-7.78-0.78-11.47-2.2c-2.22-0.85-4.29-1.96-6.13-3.47
			c-1.36-1.12-2.52-2.41-3.32-3.99c-0.61-1.2-0.95-2.47-0.96-3.82c-0.01-1.58,0.42-3.05,1.2-4.41c0.9-1.57,2.14-2.84,3.57-3.94
			c1.87-1.43,3.94-2.47,6.14-3.27c2.12-0.78,4.3-1.3,6.53-1.63c2.25-0.33,4.52-0.46,6.79-0.39c3.71,0.12,7.33,0.71,10.83,1.97
			c2.3,0.83,4.47,1.91,6.4,3.41c1.34,1.04,2.51,2.24,3.38,3.71c0.84,1.42,1.3,2.94,1.28,4.6c-0.02,1.39-0.39,2.69-1.04,3.92
			c-0.81,1.52-1.94,2.77-3.26,3.85c-1.35,1.11-2.85,2-4.43,2.74C75.84,39.6,75.69,39.67,75.52,39.75z"/>
		<path class="st0" d="M18.24,65.91c0.66-2.32,1.31-4.65,1.98-6.99c-0.11-0.05-0.2-0.1-0.3-0.14c-1.63-0.69-3.17-1.55-4.53-2.69
			c-1.06-0.88-1.95-1.9-2.59-3.13c-0.52-1-0.8-2.06-0.79-3.19c0-1.23,0.34-2.38,0.95-3.44c0.74-1.29,1.75-2.34,2.93-3.23
			c1.62-1.24,3.43-2.12,5.35-2.8c2.02-0.71,4.1-1.15,6.22-1.39c2.09-0.24,4.19-0.27,6.29-0.1c3.04,0.25,5.98,0.88,8.79,2.09
			c1.6,0.69,3.1,1.55,4.43,2.68c0.86,0.74,1.63,1.56,2.2,2.54c1.51,2.57,1.43,5.11-0.16,7.61c-0.64,1.01-1.48,1.85-2.42,2.59
			c-1.65,1.31-3.51,2.23-5.48,2.93c-1.82,0.65-3.69,1.07-5.59,1.34c-1.85,0.25-3.71,0.33-5.57,0.28c-1.14-0.03-2.29-0.14-3.42-0.31
			c-0.18-0.03-0.32,0.01-0.47,0.11c-1.97,1.35-3.95,2.7-5.92,4.04c-0.53,0.36-1.07,0.73-1.6,1.1c-0.07,0.05-0.15,0.09-0.23,0.14
			C18.29,65.93,18.26,65.92,18.24,65.91z"/>
		<path class="st0" d="M88.63,67.27c-0.16,0-0.31,0-0.46,0c-5.57,0-11.14,0-16.7-0.01c-0.27,0-0.44,0.08-0.61,0.28
			c-1.81,2.07-3.63,4.13-5.44,6.2c-0.08,0.09-0.16,0.17-0.24,0.25c-0.02-0.01-0.04-0.01-0.06-0.02c-0.08-2.22-0.16-4.44-0.24-6.7
			c-2.55,0-5.08,0-7.59,0c-0.07-0.26-0.08-17.9-0.03-18.25c0.01-0.01,0.01-0.02,0.02-0.02c0.01-0.01,0.02-0.01,0.03-0.01
			c0.03-0.01,0.06-0.02,0.09-0.02c10.37,0,20.74,0,31.11,0c0.04,0,0.08,0.01,0.11,0.01c0.02,0.01,0.02,0.02,0.03,0.03
			c0.01,0.01,0.02,0.02,0.02,0.02c0.01,0.07,0.02,0.14,0.02,0.21c0,5.97,0,11.93,0,17.9C88.67,67.17,88.65,67.2,88.63,67.27z"/>
		<path class="st0" d="M44.38,61.29c0,2.17,0,4.35,0,6.55c0.15,0.01,0.26,0.02,0.38,0.02c1.6,0,3.21,0,4.81,0
			c0.85,0,1.56,0.46,1.85,1.22c0.09,0.24,0.14,0.5,0.14,0.76c0.01,4.19,0,8.39,0,12.58c0,0.22,0.01,0.44,0,0.66
			c-0.01,1.13-0.96,2.01-2.1,1.92c-0.13-0.01-0.26-0.02-0.39-0.02c-8.16,0-16.31,0-24.47,0c-0.27,0-0.54,0.03-0.8,0
			c-1-0.11-1.71-0.93-1.71-1.94c0-0.52,0-1.04,0-1.55c0-3.84,0-7.69,0.01-11.53c0-0.28,0.03-0.59,0.14-0.85
			c0.31-0.78,0.91-1.18,1.74-1.24c0.11-0.01,0.22,0,0.33,0c4.81,0,9.62,0,14.43,0c0.26,0,0.43-0.07,0.6-0.28
			c1.59-2.03,3.2-4.05,4.8-6.07c0.06-0.08,0.13-0.16,0.2-0.24C44.34,61.28,44.36,61.29,44.38,61.29z"/>
	</g>
</g>
</svg>
