<?xml version="1.0" encoding="utf-8"?>
<!-- Generator: Adobe Illustrator 26.5.0, SVG Export Plug-In . SVG Version: 6.00 Build 0)  -->
<svg version="1.1" id="Lag_1" xmlns="http://www.w3.org/2000/svg" xmlns:xlink="http://www.w3.org/1999/xlink" x="0px" y="0px"
	 viewBox="0 0 100 100" style="enable-background:new 0 0 100 100;" xml:space="preserve">
<style type="text/css">
	.st0{fill:#FFFFFF;}
</style>
<g>
	<g>
		<g>
			<path class="st0" d="M93.71,51.97c-6.38-12.9-21.39-19.57-34.79-22.09c-6.65-1.25-13.18-1.12-19.64,1
				c-6.24,2.05-11.96,5.44-17.39,9.07c-1.1,0.73,0.07,2.42,1.16,1.68c4.98-3.33,10.17-6.44,15.84-8.46
				c6.33-2.26,12.65-2.63,19.26-1.48c6.99,1.22,13.92,3.39,20.09,6.93c6.05,3.47,10.63,8.14,14.66,13.77
				C93.19,52.79,93.95,52.45,93.71,51.97L93.71,51.97z"/>
		</g>
	</g>
	<g>
		<g>
			<path class="st0" d="M22.72,40.74c-2.52-2.5-4.57-5.31-6.27-8.42c-0.35-0.64-1.36-0.47-1.63,0.14
				c-3.28,7.33-6.35,14.77-9.5,22.16c-0.24,0.55,0.06,1.35,0.74,1.4c8.08,0.7,16.11,1.75,24.09,3.17c0.68,0.12,1.26-0.46,1.21-1.13
				c-0.23-3.58-1.13-6.94-2.72-10.15c-0.59-1.19-2.56-0.5-1.97,0.72c1.5,3.05,2.37,6.23,2.61,9.62c0.4-0.38,0.81-0.75,1.21-1.13
				c-7.99-1.37-16.03-2.4-24.1-3.08c0.25,0.47,0.49,0.94,0.74,1.4c3.14-7.39,6.39-14.76,9.41-22.2c-0.54,0.05-1.09,0.09-1.63,0.14
				c1.88,3.17,4.22,5.9,7,8.31C22.52,42.26,23.3,41.32,22.72,40.74L22.72,40.74z"/>
		</g>
	</g>
	<g>
		<g>
			<path class="st0" d="M93.17,51.56c-4.33-1.17-8.64-2.44-12.86-3.93c-0.59-0.21-1.2,0.16-1.17,0.82
				c0.18,3.94,0.48,7.88,0.75,11.81c0.55-0.2,1.09-0.4,1.64-0.6C68.1,44.33,46.43,39.27,27.71,47.52c-1.34,0.59-0.56,2.73,0.78,2.14
				c17.65-7.83,38.69-3.48,51.56,11.04c0.57,0.64,1.71,0.38,1.64-0.6c-0.29-3.93-0.53-7.87-0.9-11.8c-0.32,0.3-0.64,0.59-0.96,0.89
				c4.35,1.33,8.71,2.52,13.17,3.44C93.68,52.77,93.83,51.74,93.17,51.56L93.17,51.56z"/>
		</g>
	</g>
	<g>
		<g>
			<path class="st0" d="M66.49,48.27c3.06-0.31,6.06-1.63,9.12-2.13c3.31-0.55,6.65-0.75,10-0.6c1.31,0.06,1.68-1.98,0.35-2.04
				c-3.53-0.15-7.04,0.03-10.52,0.72c-3.04,0.6-6.75,1.34-9.22,3.3C65.91,47.77,66.06,48.32,66.49,48.27L66.49,48.27z"/>
		</g>
	</g>
	<g>
		<g>
			<path class="st0" d="M71.34,52.01c1.39,0.06,2.76,0.01,4.15-0.15c1.35-0.15,2.92-0.19,4.15-0.76c0.59-0.28,0.69-1.39-0.13-1.44
				c-1.38-0.07-2.81,0.39-4.17,0.64c-1.37,0.25-2.73,0.51-4.08,0.84C70.84,51.25,70.9,51.99,71.34,52.01L71.34,52.01z"/>
		</g>
	</g>
	<g>
		<g>
			<path class="st0" d="M58.58,45.82c3.24-0.89,6.36-2.59,9.51-3.79c3.21-1.22,6.5-2.11,9.77-3.17c0.95-0.31,0.63-1.96-0.39-1.75
				c-3.41,0.7-6.77,1.91-9.99,3.22c-3.07,1.24-6.68,2.7-9.21,4.87C57.96,45.46,58.18,45.93,58.58,45.82L58.58,45.82z"/>
		</g>
	</g>
	<g>
		<g>
			<path class="st0" d="M51.34,44.58c5.03-4.72,10.77-7.57,17.06-10.26c1.17-0.5,0.49-2.38-0.68-1.87
				c-6.15,2.71-13.22,5.72-17,11.59C50.43,44.49,50.95,44.95,51.34,44.58L51.34,44.58z"/>
		</g>
	</g>
	<g>
		<g>
			<path class="st0" d="M43.68,44.72c2.2-2.62,4.76-4.82,7.48-6.88c2.43-1.83,5.28-4.59,8.31-5.25c1.41-0.31,0.99-2.28-0.44-1.95
				c-3.27,0.77-5.99,3.45-8.48,5.55c-2.81,2.37-5.41,4.95-7.57,7.92C42.64,44.6,43.29,45.18,43.68,44.72L43.68,44.72z"/>
		</g>
	</g>
	<g>
		<g>
			<path class="st0" d="M37.26,45.49c2.13-2.64,4.32-5.17,6.78-7.51c2.3-2.19,5-3.89,7.32-6.02c-0.43,0.03-0.86,0.07-1.3,0.1
				c0.02,0.02,0.04,0.03,0.05,0.05c-0.03-0.39-0.06-0.77-0.09-1.16c-0.01,0.02-0.02,0.03-0.03,0.05c-0.2,0.27-0.24,0.62-0.05,0.91
				c0.01,0.01,0.02,0.03,0.03,0.04c0.26,0.39,0.77,0.43,1.14,0.21c0.02-0.01,0.04-0.03,0.07-0.04c0.58-0.34,0.5-1.35-0.13-1.59
				c-1.14-0.42-1.81,0.37-2.7,1.05c-1.58,1.21-3.06,2.56-4.47,3.96c-2.84,2.82-5.34,6.01-7.5,9.39
				C36.07,45.43,36.9,45.94,37.26,45.49L37.26,45.49z"/>
		</g>
	</g>
	<g>
		<g>
			<path class="st0" d="M32.52,46.46c0.52-2.49,2.1-4.93,3.37-7.11c1.43-2.46,3.07-4.76,4.73-7.07c0.69-0.97-0.7-2.18-1.42-1.21
				c-1.87,2.52-3.48,5.25-4.89,8.05c-1.02,2.03-2.93,4.95-2.53,7.31C31.86,46.84,32.43,46.89,32.52,46.46L32.52,46.46z"/>
		</g>
	</g>
	<g>
		<g>
			<path class="st0" d="M25.67,56.61c1.07-3.14,1.25-6.45,2.12-9.64c1.04-3.8,3.08-7.1,4.47-10.74c0.45-1.18-1.09-1.85-1.75-0.81
				c-1.89,2.99-3.34,6.56-4.25,9.97c-0.96,3.58-0.73,7.32-1.63,10.91C24.48,56.88,25.47,57.2,25.67,56.61L25.67,56.61z"/>
		</g>
	</g>
	<g>
		<g>
			<path class="st0" d="M19.43,55.39c0.63-2.65,1.11-5.33,1.89-7.94c0.77-2.57,2.19-5.05,2.72-7.66c0.16-0.76-0.92-1.28-1.4-0.65
				c-1.6,2.09-2.32,5.05-2.97,7.58c-0.73,2.82-1.24,5.72-1.17,8.64C18.52,55.91,19.31,55.88,19.43,55.39L19.43,55.39z"/>
		</g>
	</g>
	<g>
		<g>
			<path class="st0" d="M12.76,54.96c1.4-2.83,2.03-6.1,3.27-9.03c1.15-2.71,2.98-5.26,3.84-8.06c0.3-0.97-1.07-1.36-1.65-0.77
				c-2.17,2.23-3.38,5.94-4.33,8.84c-0.91,2.77-1.99,5.96-1.78,8.9C12.14,55.19,12.62,55.25,12.76,54.96L12.76,54.96z"/>
		</g>
	</g>
</g>
</svg>
